<svg width="52" height="52" viewBox="0 0 52 52" fill="none" xmlns="http://www.w3.org/2000/svg">
<path d="M26 51.5C11.9167 51.5 0.5 40.0833 0.5 26C0.5 11.9167 11.9167 0.5 26 0.5C40.0833 0.5 51.5 11.9167 51.5 26C51.5 40.0833 40.0833 51.5 26 51.5Z" fill="#2C2C2C"/>
<path d="M26 51.5C11.9167 51.5 0.5 40.0833 0.5 26C0.5 11.9167 11.9167 0.5 26 0.5C40.0833 0.5 51.5 11.9167 51.5 26C51.5 40.0833 40.0833 51.5 26 51.5Z" stroke="#2C2C2C" stroke-linecap="round"/>
<g clip-path="url(#clip0_4_525)">
<path d="M15 15H19L21.68 28.39C21.7714 28.8504 22.0219 29.264 22.3875 29.5583C22.7532 29.8526 23.2107 30.009 23.68 30H33.4C33.8693 30.009 34.3268 29.8526 34.6925 29.5583C35.0581 29.264 35.3086 28.8504 35.4 28.39L37 20H20M24 35C24 35.5523 23.5523 36 23 36C22.4477 36 22 35.5523 22 35C22 34.4477 22.4477 34 23 34C23.5523 34 24 34.4477 24 35ZM35 35C35 35.5523 34.5523 36 34 36C33.4477 36 33 35.5523 33 35C33 34.4477 33.4477 34 34 34C34.5523 34 35 34.4477 35 35Z" stroke="white" stroke-width="2.5" stroke-linecap="round" stroke-linejoin="round"/>
</g>
<defs>
<clipPath id="clip0_4_525">
<rect width="24" height="24" fill="white" transform="translate(14 14)"/>
</clipPath>
</defs>
</svg>
